<?xml version="1.0" encoding="utf-8"?>
<!-- Generator: Adobe Illustrator 22.0.1, SVG Export Plug-In . SVG Version: 6.00 Build 0)  -->
<svg version="1.1" xmlns="http://www.w3.org/2000/svg" xmlns:xlink="http://www.w3.org/1999/xlink" x="0px" y="0px"
	 viewBox="0 0 279.5 50.1" style="enable-background:new 0 0 279.5 50.1;" xml:space="preserve">
<style type="text/css">
	.st0{fill:#FFFFFF;}
	.st1{fill:#EE8022;}
</style>
<g id="Layer_2">
	<rect x="-18.3" y="-60.9" class="st0" width="322" height="176"/>
</g>
<g id="Background">
	<g>
		<g>
			<path d="M47.4,39c-2.2,0-4.1-0.2-5.7-0.5c-1.5-0.3-2.7-0.7-3.6-1.1c-0.8-0.4-1.4-0.9-1.7-1.4c-0.4-0.6-0.5-1.3-0.5-2.2V18V2.4
				c0-0.3,0.1-0.6,0.3-0.8c0.2-0.2,0.5-0.3,0.9-0.3h3h3c0.4,0,0.7,0.1,0.9,0.3c0.2,0.2,0.3,0.4,0.3,0.8v6.5v6.5
				c0.6-0.5,1.6-1.1,2.9-1.7s3-0.9,5-0.9c3.6,0,6.2,1.3,8,3.4c1.8,2.1,2.7,5.1,2.7,8.4c0,4.6-1.5,8.2-4.2,10.6
				C56,37.6,52.1,39,47.4,39z M48.5,17.1c-0.9,0-1.8,0.2-2.5,0.4c-0.7,0.3-1.3,0.6-1.7,0.9v7.1v7.1c0,0.7,0.3,1.3,0.9,1.7
				c0.6,0.4,1.5,0.6,2.6,0.6c1.5,0,3.2-0.7,4.4-2.2c1.2-1.5,2.1-3.8,2.1-7.1c0-2.9-0.6-5.1-1.7-6.4C51.7,17.8,50.2,17.1,48.5,17.1z"
				/>
			<path d="M88.6,37.3c-0.8,0.4-2.2,0.8-4.1,1.1c-1.8,0.3-4.1,0.5-6.5,0.5c-2.1,0-5.3-0.2-7.9-1.2c-2.6-1-4.7-3-4.7-6.5v-8.5v-8.5
				c0-0.3,0.1-0.6,0.3-0.8c0.2-0.2,0.5-0.3,0.9-0.3h3h3c0.4,0,0.7,0.1,0.9,0.3c0.2,0.2,0.3,0.4,0.3,0.8v8.4v8.4
				c0,1.2,0.4,2.1,1.2,2.7c0.7,0.6,1.8,0.9,3.1,0.9c1.7,0,2.8-0.3,3.4-0.7c0.6-0.5,0.9-1.1,0.9-1.9v-8.8v-8.8c0-0.3,0.1-0.6,0.3-0.8
				c0.2-0.2,0.5-0.3,0.9-0.3h3.1h3.1c0.4,0,0.7,0.1,0.9,0.3c0.2,0.2,0.3,0.4,0.3,0.8V24v9.7c0,0.9-0.2,1.6-0.5,2.2
				C89.9,36.5,89.4,37,88.6,37.3z"/>
			<path d="M121.6,15.1l-5.4,13.3l-5.4,13.3c-1,2.4-2.3,4.5-4.1,6c-1.9,1.5-4.3,2.4-7.6,2.4c-2.2,0-3.7-0.4-4.7-1
				c-1-0.6-1.5-1.5-1.5-2.5c0-0.9,0.4-1.5,0.9-2c0.6-0.5,1.4-0.7,2.3-0.7c1,0,1.6,0.2,2.2,0.4c0.6,0.2,1.1,0.4,1.8,0.4
				c0.9,0,1.6-0.4,2.2-1c0.6-0.6,1-1.3,1.3-2l0.4-1l0.4-1L99,27.4l-5.4-12.3c-0.1-0.1-0.1-0.3-0.2-0.4c0-0.1-0.1-0.3-0.1-0.4
				c0-0.3,0.1-0.6,0.3-0.8c0.2-0.2,0.5-0.3,0.9-0.3h3.1h3.1c0.4,0,0.7,0.1,0.9,0.2c0.2,0.1,0.4,0.4,0.5,0.7l2.4,6.6l2.4,6.6
				c0.5,1.3,0.7,2.6,0.9,3.6c0.2,1,0.2,1.7,0.2,1.7h0.1h0.1c0,0,0.1-0.7,0.3-1.7c0.2-1,0.5-2.4,1-3.6l2.3-6.6l2.3-6.6
				c0.1-0.3,0.3-0.6,0.5-0.7c0.2-0.1,0.6-0.2,1-0.2h2.5h2.5c0.4,0,0.7,0.1,0.9,0.3c0.2,0.2,0.3,0.4,0.3,0.8c0,0.1,0,0.3-0.1,0.4
				C121.7,14.8,121.6,15,121.6,15.1z"/>
			<path d="M135.7,39c-3.8,0-7.3-1-9.8-3.2c-2.5-2.2-4.1-5.5-4.1-10.2c0-4.5,1.6-7.7,4.2-9.8c2.5-2.1,6-3.1,9.7-3.1
				c3.6,0,6.5,1.1,8.6,2.9c2.1,1.8,3.2,4.2,3.2,6.9c0,0.7-0.2,1.1-0.5,1.4c-0.4,0.3-0.9,0.4-1.6,0.5l-7.9,1.1l-7.9,1.1
				c0.3,1.9,1,3.6,2.3,4.8c1.3,1.2,3.1,2,5.5,2c1.7,0,3.1-0.5,4.2-1.1c1.1-0.7,2-1.5,2.6-2.2c0.2-0.2,0.4-0.5,0.7-0.6
				c0.3-0.2,0.6-0.3,1-0.3c0.5,0,0.9,0.2,1.2,0.4c0.3,0.3,0.5,0.7,0.5,1.1c0,1.8-1.2,3.8-3.3,5.4C142.2,37.8,139.2,39,135.7,39z
				 M134.7,16.4c-2,0-3.4,0.9-4.3,2.2c-0.9,1.3-1.3,3-1.4,4.6l5.3-0.7l5.3-0.7c-0.1-1.3-0.4-2.6-1.1-3.6
				C137.7,17.1,136.5,16.4,134.7,16.4z"/>
			<path d="M168.5,19.8c-1.9,0-2.6-0.8-3.2-1.7c-0.6-0.8-1.2-1.7-2.8-1.7c-0.9,0-1.6,0.2-2.1,0.5c-0.5,0.4-0.8,0.9-0.8,1.5v9.4v9.4
				c0,0.3-0.1,0.6-0.3,0.8c-0.2,0.2-0.5,0.3-0.9,0.3h-3h-3c-0.4,0-0.7-0.1-0.9-0.3c-0.2-0.2-0.3-0.4-0.3-0.8V27.3V17.2
				c0-0.8,0.1-1.4,0.5-1.9c0.4-0.5,1-0.8,1.9-1.2c0.9-0.4,2.4-0.7,4-1c1.7-0.3,3.6-0.5,5.7-0.5c3,0,5.2,0.4,6.6,1.2
				c1.4,0.7,2,1.8,2,2.9c0,1-0.3,1.7-0.8,2.2C170.4,19.5,169.6,19.8,168.5,19.8z"/>
			<path d="M172.5,38.8c-1.4,0-2.6-0.5-3.6-1.3c-0.9-0.8-1.5-1.8-1.5-3c0-1.2,0.6-2.2,1.5-3c0.9-0.8,2.2-1.3,3.6-1.3
				c1.4,0,2.6,0.5,3.6,1.3c0.9,0.8,1.5,1.8,1.5,3c0,1.2-0.6,2.2-1.5,3C175.2,38.3,173.9,38.8,172.5,38.8z"/>
			<path d="M193,39c-3.6,0-6.9-1.1-9.3-3.2c-2.4-2.2-4-5.4-4-9.9c0-4.1,1.3-7.4,3.6-9.7c2.3-2.3,5.7-3.5,10-3.5c3.8,0,6.6,1,8.4,2.3
				c1.8,1.3,2.7,2.9,2.7,4.1c0,0.9-0.3,1.7-0.9,2.2c-0.6,0.5-1.6,0.8-2.8,0.8c-1,0-1.8-0.3-2.3-0.7c-0.6-0.4-0.9-1.1-1.2-1.7
				c-0.2-0.5-0.6-1.3-1.2-2c-0.7-0.7-1.6-1.2-3.1-1.2c-1.4,0-2.8,0.7-3.7,1.9c-1,1.3-1.6,3.1-1.6,5.6c0,2.5,0.6,4.8,1.8,6.5
				c1.2,1.7,3.1,2.8,5.7,2.8c1.6,0,2.8-0.4,3.7-1.1c0.9-0.6,1.6-1.5,2.1-2.2c0.2-0.3,0.5-0.5,0.8-0.7c0.3-0.2,0.7-0.2,1.1-0.2
				c0.5,0,0.9,0.2,1.2,0.5s0.4,0.7,0.4,1.1c0,1.8-1.1,3.9-3.1,5.5C199.4,37.8,196.5,39,193,39z"/>
			<path d="M220.8,39c-4.4,0-7.9-1.3-10.3-3.7c-2.4-2.3-3.8-5.6-3.8-9.5c0-3.9,1.4-7.2,3.8-9.5c2.4-2.3,5.9-3.6,10.3-3.6
				c4.3,0,7.8,1.3,10.3,3.6c2.5,2.3,3.8,5.6,3.8,9.5c0,3.9-1.3,7.2-3.8,9.5C228.7,37.6,225.2,39,220.8,39z M220.8,16.5
				c-1.9,0-3.2,0.9-4.1,2.4c-0.9,1.5-1.3,3.8-1.3,6.4c0,2.7,0.4,5.1,1.3,6.7c0.9,1.7,2.3,2.7,4.2,2.7c2,0,3.3-0.9,4.2-2.5
				c0.9-1.6,1.2-3.8,1.2-6.5c0-2.7-0.4-5-1.3-6.7C224.1,17.5,222.7,16.5,220.8,16.5z"/>
			<path d="M278.4,38.3h-3h-3c-0.4,0-0.7-0.1-0.9-0.3c-0.2-0.2-0.3-0.4-0.3-0.8v-8.5v-8.5c0-1.3-0.4-2.2-1.1-2.9
				c-0.7-0.7-1.8-1-3.2-1c-1.5,0-2.5,0.4-3.2,1.1c-0.7,0.7-0.9,1.7-0.9,2.8v8.5v8.5c0,0.3-0.1,0.6-0.3,0.8c-0.2,0.2-0.5,0.3-0.9,0.3
				h-3h-3c-0.4,0-0.7-0.1-0.9-0.3c-0.2-0.2-0.3-0.4-0.3-0.8v-8.5v-8.5c0-1.3-0.4-2.2-1.1-2.9c-0.7-0.7-1.8-1-3.2-1
				c-1.4,0-2.4,0.2-3.1,0.7c-0.7,0.5-1,1.3-1,2.3v8.9v8.9c0,0.3-0.1,0.6-0.3,0.8c-0.2,0.2-0.5,0.3-0.9,0.3h-3h-3
				c-0.4,0-0.7-0.1-0.9-0.3c-0.2-0.2-0.3-0.4-0.3-0.8V27.3V17.2c0-0.9,0.1-1.5,0.5-2c0.4-0.5,1-0.8,1.8-1.1c1-0.4,2.4-0.7,4.1-1
				c1.7-0.3,3.6-0.4,5.6-0.4c2.3,0,4.2,0.3,5.7,0.8c1.5,0.5,2.7,1.2,3.7,2c1-0.8,2.4-1.5,4.1-2c1.7-0.5,3.7-0.8,6.2-0.8
				c2.4,0,5,0.5,7,1.7c2,1.2,3.4,3,3.4,5.7v8.6v8.6c0,0.3-0.1,0.6-0.3,0.8C279.1,38.2,278.8,38.3,278.4,38.3z"/>
		</g>
		<g>
			<path class="st1" d="M17.3,39c-4.8,0-9.1-1.5-12.3-4.7C1.9,31.1,0,26.1,0,19.2C0,12.5,2,7.7,5.2,4.6C8.4,1.5,12.7,0,17.3,0
				c4.5,0,8.2,1.7,10.7,4.3c2.6,2.6,4,6.3,4,10.2c0,1-0.2,1.7-0.7,2.1c-0.4,0.4-1.1,0.7-2,0.8l-9.8,1.6l-9.8,1.6
				c0.3,2.8,1.2,5.3,2.8,7.1c1.6,1.8,3.9,3,6.9,3c2.1,0,3.8-0.7,5.2-1.7c1.4-1,2.5-2.2,3.2-3.2c0.3-0.4,0.6-0.7,0.9-0.9
				c0.4-0.2,0.8-0.4,1.3-0.4c0.6,0,1.1,0.3,1.5,0.7c0.4,0.4,0.6,1,0.6,1.6c0,2.6-1.5,5.7-4.1,8C25.4,37.3,21.7,39,17.3,39z
				 M16.1,5.6c-2.5,0-4.2,1.3-5.4,3.2c-1.1,1.9-1.6,4.4-1.7,6.8l6.6-1.1l6.6-1.1c-0.1-1.9-0.5-3.9-1.4-5.4
				C19.8,6.6,18.3,5.6,16.1,5.6z"/>
		</g>
	</g>
</g>
</svg>
