<svg xmlns="http://www.w3.org/2000/svg" viewBox="0 0 44.29 28.35"><defs><style>.cls-1{fill:#fff;}</style></defs><title>John-Lewis</title><g id="Artwork"><rect x="15.94" width="28.35" height="28.35"/><rect x="10.63" width="4.25" height="28.35"/><rect x="5.31" width="2.13" height="28.35"/><rect width="1.06" height="28.35"/><path class="cls-1" d="M22.51,5.12H23V8.2a1.41,1.41,0,0,1-.27,1,.84.84,0,0,1-.45.25L21.83,9a1,1,0,0,0,.42-.05.34.34,0,0,0,.2-.19,1.8,1.8,0,0,0,.06-.59Z"/><path class="cls-1" d="M26.47,5.07a1.92,1.92,0,0,1,1.39.53,1.74,1.74,0,0,1,.55,1.32,1.71,1.71,0,0,1-.56,1.32,2,2,0,0,1-1.41.52,1.88,1.88,0,0,1-1.36-.52,1.74,1.74,0,0,1-.54-1.31,1.74,1.74,0,0,1,.55-1.33A1.86,1.86,0,0,1,26.47,5.07Zm0,.49a1.45,1.45,0,0,0-1,.38,1.35,1.35,0,0,0-.4,1,1.32,1.32,0,0,0,.4,1,1.48,1.48,0,0,0,2,0,1.3,1.3,0,0,0,.4-1,1.28,1.28,0,0,0-.4-1A1.37,1.37,0,0,0,26.49,5.56Z"/><path class="cls-1" d="M32.55,5.12h.51v3.6h-.51V7.15H30.44V8.72h-.52V5.12h.52V6.69h2.11Z"/><path class="cls-1" d="M37.85,5.12h.49v3.6H37.9L35.38,6V8.72H34.9V5.12h.42l2.53,2.8Z"/><polygon class="cls-1" points="20.4 12.85 20.4 16.47 22.62 16.47 22.62 16 20.92 16 20.92 12.85 20.4 12.85"/><polygon class="cls-1" points="24.36 12.85 24.36 16.47 26.69 16.47 26.69 16 24.88 16 24.88 14.88 26.59 14.88 26.59 14.41 24.88 14.41 24.88 13.31 26.64 13.31 26.64 12.85 24.36 12.85"/><polygon class="cls-1" points="33.19 12.85 32.2 15.34 31.2 12.85 30.7 12.85 29.7 15.34 28.7 12.85 28.18 12.85 29.64 16.5 29.75 16.5 30.95 13.54 32.14 16.5 32.24 16.5 33.71 12.85 33.19 12.85"/><rect class="cls-1" x="35.28" y="12.85" width="0.52" height="3.62"/><path class="cls-1" d="M38.73,15l-.4-.24a1.94,1.94,0,0,1-.51-.44.79.79,0,0,1-.18-.51.89.89,0,0,1,.3-.7,1.12,1.12,0,0,1,.78-.26,1.38,1.38,0,0,1,.83.25v.59a1.2,1.2,0,0,0-.84-.38.7.7,0,0,0-.42.12.35.35,0,0,0-.16.3.44.44,0,0,0,.1.3,2.15,2.15,0,0,0,.4.31l.41.23a1.14,1.14,0,0,1,.65,1,.94.94,0,0,1-.29.71,1,1,0,0,1-.76.27,1.59,1.59,0,0,1-1-.33v-.66a1.21,1.21,0,0,0,1,.53.6.6,0,0,0,.4-.13.44.44,0,0,0,.17-.34Q39.21,15.26,38.73,15Z"/><path class="cls-1" d="M21,20.43a.52.52,0,0,1,.37.13.39.39,0,0,1,.15.32.44.44,0,0,1-.09.27,1.09,1.09,0,0,1-.27.24l.27.32a1.38,1.38,0,0,0,.22-.32H22a1.59,1.59,0,0,1-.36.56l.4.44h-.49l-.18-.2a1,1,0,0,1-.29.17.81.81,0,0,1-.33.06.61.61,0,0,1-.4-.14.46.46,0,0,1-.16-.36.53.53,0,0,1,.11-.31,1.2,1.2,0,0,1,.34-.25,1.11,1.11,0,0,1-.15-.23.42.42,0,0,1-.05-.22.4.4,0,0,1,.16-.34A.57.57,0,0,1,21,20.43Zm-.43,1.47a.21.21,0,0,0,.07.16.25.25,0,0,0,.17.06.57.57,0,0,0,.36-.16l-.34-.38a.8.8,0,0,0-.19.16A.21.21,0,0,0,20.54,21.9Zm.23-1a.26.26,0,0,0,.05.15.53.53,0,0,0,.12.14.53.53,0,0,0,.16-.13.2.2,0,0,0,.06-.15.21.21,0,0,0-.05-.13.2.2,0,0,0-.15-.05.23.23,0,0,0-.14,0A.21.21,0,0,0,20.77,20.89Z"/><path class="cls-1" d="M24.09,20.43a.6.6,0,0,1,.44.16.52.52,0,0,1,.18.41.51.51,0,0,1-.18.41.63.63,0,0,1-.46.16h-.36v.82h-.38v-2Zm-.1.84a.36.36,0,0,0,.24-.07.23.23,0,0,0,.09-.2c0-.18-.12-.27-.35-.27h-.26v.54Z"/><path class="cls-1" d="M26.16,20.43l.87,2h-.4l-.21-.47h-.87l-.19.47H25l.81-2Zm-.49,1.2h.63L26,20.85Z"/><path class="cls-1" d="M28.24,20.43a.68.68,0,0,1,.45.15.51.51,0,0,1,.17.4.47.47,0,0,1-.08.29.54.54,0,0,1-.26.2.55.55,0,0,1,.17.14,1.5,1.5,0,0,1,.18.29,5,5,0,0,0,.27.49h-.43l-.11-.2c-.11-.21-.19-.35-.24-.43a.53.53,0,0,0-.15-.15.3.3,0,0,0-.16-.05h-.14v.83h-.38v-2Zm-.09.84a.36.36,0,0,0,.24-.08.26.26,0,0,0,.08-.2.25.25,0,0,0-.08-.2.36.36,0,0,0-.24-.07h-.24v.55Z"/><path class="cls-1" d="M31.21,20.43v.3h-.7v1.66h-.38V20.73h-.69v-.3Z"/><path class="cls-1" d="M32.16,20.43l1.17,1.37V20.43h.37v2h-.33L32.2,21v1.39h-.37v-2Z"/><path class="cls-1" d="M35.76,20.43v.3h-.89v.51h.85v.3h-.85v.56h.91v.29H34.49v-2Z"/><path class="cls-1" d="M37.22,20.43a.68.68,0,0,1,.45.15.51.51,0,0,1,.17.4.55.55,0,0,1-.08.29.59.59,0,0,1-.26.2.55.55,0,0,1,.17.14,1.5,1.5,0,0,1,.18.29,5,5,0,0,0,.27.49h-.43a1.11,1.11,0,0,1-.11-.2c-.11-.21-.19-.35-.24-.43a.53.53,0,0,0-.15-.15.3.3,0,0,0-.16-.05h-.14v.83h-.38v-2Zm-.09.84a.36.36,0,0,0,.24-.08.26.26,0,0,0,.08-.2.25.25,0,0,0-.08-.2.36.36,0,0,0-.24-.07h-.24v.55Z"/><path class="cls-1" d="M39.25,20.41a1.14,1.14,0,0,1,.56.14v.34a1.07,1.07,0,0,0-.54-.19.37.37,0,0,0-.23.06.16.16,0,0,0-.08.15c0,.07,0,.14.15.2l.33.16a.86.86,0,0,1,.34.25.55.55,0,0,1,.11.34.5.5,0,0,1-.18.4.67.67,0,0,1-.47.16,1.49,1.49,0,0,1-.33,0,1.39,1.39,0,0,1-.3-.15v-.37a.93.93,0,0,0,.59.26.41.41,0,0,0,.23-.06.19.19,0,0,0,.08-.16.25.25,0,0,0-.15-.22,3.15,3.15,0,0,0-.32-.16.84.84,0,0,1-.34-.25.47.47,0,0,1-.12-.32.5.5,0,0,1,.19-.4A.72.72,0,0,1,39.25,20.41Z"/></g></svg>