<svg xmlns="http://www.w3.org/2000/svg" xmlns:xlink="http://www.w3.org/1999/xlink" width="199.308" height="107.504" viewBox="0 0 199.308 107.504"><defs><clipPath id="a" transform="translate(0 0.001)"><rect width="199.31" height="107.503" fill="none"/></clipPath><clipPath id="b" transform="translate(0 0.001)"><rect y="-0.001" width="199.31" height="107.504" fill="none"/></clipPath></defs><g clip-path="url(#a)"><rect width="199.308" height="107.504" fill="#ed1b24"/><polygon points="106.73 15.098 116.952 15.098 116.952 12.77 83.29 12.77 83.29 15.098 93.514 15.098 93.514 92.082 83.29 92.082 83.29 94.406 116.952 94.406 116.952 92.082 106.73 92.082 106.73 15.098" fill="#fff"/><g clip-path="url(#b)"><path d="M76.984,36.218h-2.53s-2.7-23.232-24.9-23.232c-20.54,0-21.972,19.326-21.972,35.082,0,25.124,2.63,45.672,23.17,45.672,22.07,0,25.7-23.166,25.7-23.166h2.4V94.542h-1.6l-4.794-4.928a40.174,40.174,0,0,1-21.836,6.66c-22.122,0-38.65-19.088-38.65-41.546,0-23.882,15.312-43.544,36.918-43.544,13.016,0,20.106,7.192,20.106,7.192l5.86-5.728h1.73Z" transform="translate(0 0.001)" fill="#fff"/><path d="M152.244,11.943c-21.5,0-35.134,23.638-35.134,42.116s13.634,42.25,35.134,42.25,35.136-23.776,35.136-42.25-13.634-42.116-35.136-42.116m0,82.136c-21.124,0-19.97-20.616-19.97-40.02s-1.154-40.34,19.97-40.34,19.972,20.932,19.972,40.34,1.152,40.02-19.972,40.02" transform="translate(0 0.001)" fill="#fff"/></g></g></svg>