<svg xmlns="http://www.w3.org/2000/svg" xmlns:xlink="http://www.w3.org/1999/xlink" width="199.31" height="129.135" viewBox="0 0 199.31 129.135"><defs><clipPath id="a" transform="translate(0 -0.001)"><rect width="199.31" height="129.135" fill="none"/></clipPath><clipPath id="b" transform="translate(0 -0.001)"><rect y="0.001" width="199.31" height="129.134" fill="none"/></clipPath></defs><g clip-path="url(#a)"><rect width="199.308" height="107.504" fill="#ed1b24"/><polygon points="106.73 15.097 116.952 15.097 116.952 12.769 83.29 12.769 83.29 15.097 93.514 15.097 93.514 92.081 83.29 92.081 83.29 94.405 116.952 94.405 116.952 92.081 106.73 92.081 106.73 15.097" fill="#fff"/><g clip-path="url(#b)"><path d="M76.984,36.218h-2.53s-2.7-23.232-24.9-23.232c-20.54,0-21.972,19.326-21.972,35.082,0,25.124,2.63,45.672,23.17,45.672,22.07,0,25.7-23.166,25.7-23.166h2.4V94.542h-1.6l-4.794-4.928a40.174,40.174,0,0,1-21.836,6.66c-22.122,0-38.65-19.088-38.65-41.546,0-23.882,15.312-43.544,36.918-43.544,13.016,0,20.106,7.192,20.106,7.192l5.86-5.728h1.73Z" transform="translate(0 -0.001)" fill="#fff"/><path d="M152.244,11.944c-21.5,0-35.134,23.638-35.134,42.116s13.634,42.25,35.134,42.25S187.38,72.534,187.38,54.06s-13.634-42.116-35.136-42.116m0,82.136c-21.124,0-19.97-20.616-19.97-40.02s-1.154-40.34,19.97-40.34,19.972,20.932,19.972,40.34,1.152,40.02-19.972,40.02" transform="translate(0 -0.001)" fill="#fff"/><polygon points="79.671 115.491 91.469 115.491 91.469 117.091 81.515 117.091 81.515 121.363 91.093 121.363 91.093 122.943 81.515 122.943 81.515 128.777 79.671 128.777 79.671 115.491"/><path d="M95.086,115.492h9.034a5.278,5.278,0,0,1,3.726,1.072,3.612,3.612,0,0,1,1.186,2.842c0,3.18-2.692,3.612-3.576,3.764l4.892,5.608h-2.466l-4.5-5.308H96.968v5.308H95.086Zm1.864,1.6v4.818h6.568c1.034,0,2.352-.02,3.1-1.018a2.252,2.252,0,0,0,.452-1.41,2.573,2.573,0,0,0-.4-1.412,2.527,2.527,0,0,0-2.426-.978Z" transform="translate(0 -0.001)"/><path d="M128.72,122.323c0,4.534-3.726,6.812-8,6.812a9.327,9.327,0,0,1-5.458-1.468,6.241,6.241,0,0,1-2.69-5.364c0-4.91,4.046-7.132,8.016-7.132,4.648.02,8.13,2.748,8.13,7.152m-14.264-.132a5.125,5.125,0,0,0,1.166,3.388,6.508,6.508,0,0,0,5.1,1.918c4.912,0,6.1-3.1,6.1-5.362,0-3.5-2.8-5.44-6.436-5.344-2.766.074-5.928,1.468-5.928,5.4" transform="translate(0 -0.001)"/><path d="M132.6,115.492h2.6l4.142,8.656c.658,1.43.77,1.714,1.278,2.972a29.128,29.128,0,0,1,1.2-2.916l4.2-8.712h2.56v13.286h-1.768v-7.64a26.664,26.664,0,0,1,.17-4.064,20.338,20.338,0,0,1-1,2.332l-4.534,9.372h-1.732l-4.158-8.62a26.841,26.841,0,0,1-1.336-3.03,29.783,29.783,0,0,1,.152,3.368v8.282H132.6Z" transform="translate(0 -0.001)"/><rect x="160.292" y="115.492" width="1.938" height="13.286"/><path d="M167.144,115.492h6.606a7.24,7.24,0,0,1,5.08,1.468,6.38,6.38,0,0,1,2.2,5.082,6.839,6.839,0,0,1-1.864,4.836c-1.862,1.842-4.458,1.9-6.7,1.9h-5.324Zm1.9,1.562v10.124h3.876c1.676,0,3.746-.056,5.158-1.864a5.448,5.448,0,0,0,1.034-3.33,5,5,0,0,0-1.392-3.668,5.192,5.192,0,0,0-3.952-1.262Z" transform="translate(0 -0.001)"/><path d="M197.672,126.971c-.246.226-.452.432-.734.66a8.716,8.716,0,0,1-5.062,1.466c-4.592,0-7.6-3.18-7.6-6.98a6.975,6.975,0,0,1,1.148-3.8,8.094,8.094,0,0,1,6.774-3.142,8.915,8.915,0,0,1,5.758,1.9,5.525,5.525,0,0,1,1.3,1.618l-1.864.566a4.42,4.42,0,0,0-.848-1,6.417,6.417,0,0,0-4.2-1.45c-3.274,0-6.058,1.844-6.058,5.2a5.8,5.8,0,0,0,.9,3.086c1.448,2.238,4.234,2.426,5.1,2.426a6.107,6.107,0,0,0,4.384-1.75,3.884,3.884,0,0,0,1.054-2.408h-5.852v-1.582h7.434v7.02h-1.638Z" transform="translate(0 -0.001)"/></g></g></svg>