<?xml version="1.0" encoding="UTF-8"?>
<svg width="15px" height="15px" viewBox="0 0 15 15" version="1.1" xmlns="http://www.w3.org/2000/svg" xmlns:xlink="http://www.w3.org/1999/xlink">
    <title>g</title>
    <g id="CIO-Final" stroke="none" stroke-width="1" fill="none" fill-rule="evenodd">
        <g id="CIO---Menu-Open---Final" transform="translate(-32.000000, -48.000000)" fill="#020202" fill-rule="nonzero">
            <path d="M39.2656077,62.6406211 C43.27927,62.6406211 46.5312154,59.3886757 46.5312154,55.3750134 C46.5312154,51.3613511 43.27927,48.1094057 39.2656077,48.1094057 C35.2519454,48.1094057 32,51.3613511 32,55.3750134 C32,59.3886757 35.2519454,62.6406211 39.2656077,62.6406211 Z M41.5536767,52.5625201 L36.9775386,52.5625201 C37.4667724,50.3388812 38.4775122,49.0469035 39.2656077,49.0469035 C40.0537032,49.0469035 41.064443,50.3388812 41.5536767,52.5625201 Z M44.9257562,52.5625201 L42.5087697,52.5625201 C42.2450985,51.2617305 41.8026996,50.154317 41.243142,49.3662501 C42.8544663,49.8994291 44.1786876,51.062518 44.9257562,52.5625201 Z M36.0224456,52.5625201 L33.6054592,52.5625201 C34.3525277,51.062518 35.676749,49.8994291 37.2880733,49.3662501 C36.731434,50.1513988 36.2861169,51.2588123 36.0224456,52.5625201 Z M41.717756,57.2500089 L36.8134594,57.2500089 C36.7343523,56.6699379 36.6874888,56.0459217 36.6874888,55.3750134 C36.6874888,54.7041051 36.7343523,54.0800889 36.8134594,53.5000179 L41.717756,53.5000179 C41.7968631,54.0800889 41.8437265,54.7041051 41.8437265,55.3750134 C41.8437265,56.0459217 41.7968631,56.6699379 41.717756,57.2500089 Z M35.8730434,57.2500089 L33.2216825,57.2500089 C33.0371183,56.6582078 32.9374978,56.0283264 32.9374978,55.3750134 C32.9374978,54.7217004 33.0371183,54.0918191 33.2216825,53.5000179 L35.8730434,53.5000179 C35.7968545,54.1006024 35.7499911,54.7246186 35.7499911,55.3750134 C35.7499911,56.0254082 35.7939363,56.6494244 35.8730434,57.2500089 Z M45.3095329,57.2500089 L42.658172,57.2500089 C42.7343609,56.6494244 42.7812243,56.0254082 42.7812243,55.3750134 C42.7812243,54.7246186 42.7372791,54.1006024 42.658172,53.5000179 L45.3095329,53.5000179 C45.494097,54.0918191 45.5937176,54.7217004 45.5937176,55.3750134 C45.5937176,56.0283264 45.494097,56.6582078 45.3095329,57.2500089 Z M37.2880733,61.3837767 C35.676749,60.8505977 34.3525277,59.6875067 33.6054592,58.1875067 L36.0224456,58.1875067 C36.2861169,59.4882963 36.7285158,60.5957098 37.2880733,61.3837767 Z M39.2656077,61.7031233 C38.4775122,61.7031233 37.4667724,60.4111457 36.9775386,58.1875067 L41.5536767,58.1875067 C41.064443,60.4111457 40.0537032,61.7031233 39.2656077,61.7031233 Z M41.243142,61.3837767 C41.7997813,60.598628 42.2450985,59.4912145 42.5087697,58.1875067 L44.9257562,58.1875067 C44.1786876,59.6875067 42.8544663,60.8505977 41.243142,61.3837767 Z" id="g"></path>
        </g>
    </g>
</svg>