<?xml version="1.0" encoding="utf-8"?>
<!-- Generator: Adobe Illustrator 21.1.0, SVG Export Plug-In . SVG Version: 6.00 Build 0)  -->
<svg version="1.1" id="Layer_1" xmlns="http://www.w3.org/2000/svg" xmlns:xlink="http://www.w3.org/1999/xlink" x="0px" y="0px"
	 viewBox="0 0 310.9 181.3" style="enable-background:new 0 0 310.9 181.3;" xml:space="preserve">
<style type="text/css">
	.st0{fill:#7AC143;}
</style>
<g>
	<path class="st0" d="M37.2,80.1c8.4,0,15.6-3,20.6-8.6c2.6,5.4,6.2,7.9,11.7,7.9c8.3,0,12.2-5.4,12.2-16.4V17.6
		c0-11-3.7-16.3-12.2-16.3c-5,0-8.9,2.6-11.7,7.2c-5-5.4-11.2-8-19.6-8C17.3,0.4,0,17.4,0,40.3C0,63.9,17.1,80.1,37.2,80.1z
		 M41,24.1c8.6,0,15.5,6.9,15.5,15.5c0,8.6-6.9,15.5-15.5,15.5c-8.6,0-15.5-7-15.5-15.5C25.4,31,32.4,24.1,41,24.1z"/>
	<path class="st0" d="M137.8,80.6c24.3,0,41.4-16.9,41.4-40.3c0-23.4-17.1-40.3-41.4-40.3c-24.2,0-41.6,16.9-41.6,40.3
		C96.1,63.7,113.6,80.6,137.8,80.6z M137.8,25.3c8.6,0,15.5,7,15.5,15.5c0,8.6-6.9,15.5-15.5,15.5c-8.6,0-15.5-6.9-15.5-15.5
		C122.3,32.3,129.3,25.3,137.8,25.3z"/>
	<path class="st0" d="M166.1,101.8l-0.7,0h-18.4l-1.5,0c-3,0-5.4,2.2-5.9,5l0,0c-1.8,10.3-6.6,19.3-14.3,27
		c-10.1,10.1-22.4,15.2-36.8,15.2c-14.4,0-26.6-5.1-36.7-15.2c-7.8-7.8-12.6-16.9-14.4-27.2c-0.5-2.8-2.9-4.9-5.9-4.9l-0.5,0H10.9v0
		c-3.3,0-5.9,2.7-5.9,5.9c0,0.2,0,0.3,0,0.5v0c2.2,18.6,10.2,34.8,23.9,48.5c16.4,16.4,36.2,24.5,59.6,24.5
		c23.4,0,43.3-8.2,59.6-24.5c13.7-13.7,21.7-29.9,23.9-48.5l0,0c0-0.2,0-0.3,0-0.5C172,104.5,169.4,101.8,166.1,101.8z M160.6,108.1
		H159v4.3h-0.9v-4.3h-1.6v-0.8h4.1V108.1z M166.2,112.4h-0.9v-3.5l-1.5,2.2h-0.2l-0.1-0.1l-1.5-2.1v3.5h-0.8v-5.1h0.8l1.6,2.5
		l1.7-2.5h0.8V112.4z"/>
	<path class="st0" d="M179.7,69.5c-2.2,0-3.9,0.5-4.9,1.5c-1.1,1-1.6,2.4-1.6,4c0,2,0.5,3.4,1.5,4.1c1,0.8,2.4,1.1,4.2,1.1
		c2.3,0,3.9-0.6,4.9-1.7c1-1.1,1.5-2.5,1.5-4c0-1.6-0.4-2.8-1.2-3.7C183.1,70,181.7,69.5,179.7,69.5z"/>
	<path class="st0" d="M215.7,71.3c-2.6,1.2-5.1,1.8-7.8,1.8c-2.3,0-4-0.5-4.9-1.6c-1-1.1-1.5-3.1-1.5-6c0-2.8,0.5-4.8,1.6-6
		c1.1-1.1,2.8-1.7,5.2-1.7c1.1,0,2.3,0.1,3.5,0.3c1.2,0.2,2.4,0.6,3.5,1c0.8-0.4,1.3-0.9,1.7-1.6c0.4-0.7,0.6-1.5,0.6-2.5
		c0-1.4-0.7-2.5-2.2-3.3c-1.4-0.9-3.8-1.3-6.9-1.3c-2.7,0-5.1,0.4-7.3,1.1c-2.2,0.7-4,1.8-5.6,3.1c-1.6,1.4-2.8,3.1-3.6,5.1
		c-0.8,2-1.2,4.4-1.2,7c0,4.7,1.2,8.2,3.6,10.4c2.4,2.2,6.1,3.3,11.1,3.3c3.8,0,6.9-0.4,9.1-1.2c2.2-0.8,3.3-2.2,3.3-4.2
		c0-0.7-0.2-1.4-0.6-2.1C217,72,216.5,71.5,215.7,71.3z"/>
	<path class="st0" d="M237.7,50.3c-2.6,0-4.9,0.4-7,1.1c-2.1,0.7-3.9,1.8-5.4,3.2c-1.5,1.4-2.7,3.1-3.5,5.1c-0.8,2-1.2,4.3-1.2,6.9
		c0,4.9,1.3,8.5,3.8,10.7c2.6,2.2,6.2,3.3,11,3.3c2.4,0,4.7-0.3,6.7-1c2.1-0.7,3.9-1.7,5.4-3c1.5-1.3,2.7-3,3.6-5
		c0.9-2,1.3-4.4,1.3-7.1c0-4.9-1.2-8.5-3.7-10.7C246.2,51.4,242.5,50.3,237.7,50.3z M240.7,72c-1,1.3-2.3,2-4.2,2
		c-1.1,0-2-0.1-2.7-0.4c-0.7-0.2-1.2-0.7-1.6-1.3c-0.4-0.6-0.7-1.4-0.9-2.5c-0.2-1-0.3-2.4-0.3-3.9c0-3.1,0.4-5.3,1.3-6.7
		c0.9-1.4,2.4-2.1,4.6-2.1c2.1,0,3.5,0.7,4.2,2c0.6,1.4,1,3.4,1,6C242.1,68.4,241.6,70.7,240.7,72z"/>
	<path class="st0" d="M310.8,75c-0.1-0.4-0.2-0.8-0.4-1.2l-3.4-0.1c0-1,0.1-2.1,0.1-3.4c0-1.3,0-2.7,0.1-4.1c0-1.4,0-2.7,0-3.8
		c0-1.2,0-2.1,0-2.8c0-3.5-0.9-5.9-2.6-7.2c-1.7-1.4-4.2-2-7.5-2c-2.2,0-4.2,0.4-5.8,1.1c-1.7,0.8-2.9,1.9-3.8,3.6
		c-0.7-1.7-1.8-2.9-3.3-3.6c-1.5-0.7-3.4-1.1-5.8-1.1c-2.7,0-4.9,0.5-6.6,1.6c-1.7,1-3,2.8-3.8,5.2l0.8-5.7
		c-0.8-0.3-1.8-0.6-3.2-0.7c-1.3-0.2-2.7-0.2-4.2-0.2c-1.5,0-2.7,0.1-3.6,0.2c-1,0.2-1.7,0.4-2.2,0.7c-0.5,0.3-0.9,0.7-1.1,1.2
		c-0.2,0.5-0.3,1.1-0.3,1.7c0,0.5,0.1,1,0.1,1.5c0.1,0.5,0.3,0.9,0.5,1.3l3.6,0.1v1.1c0,0.7,0,1.6,0,2.8c0,1.2,0,2.5,0,4
		c0,1.4,0,2.9,0,4.3c0,1.6,0,3,0,4.3c0,1.3,0.1,2.5,0.1,3.6c0.1,1,0.5,1.7,1.4,2.2c0.8,0.5,2.1,0.7,3.9,0.7c0.9,0,1.9-0.1,2.8-0.1
		c0.9-0.1,1.7-0.3,2.3-0.6V60.3c0.5-0.9,1.1-1.7,1.9-2.2c0.7-0.5,1.7-0.8,2.9-0.8c1,0,1.7,0.1,2.2,0.3c0.5,0.2,0.9,0.5,1.2,0.8
		c0.3,0.4,0.4,0.8,0.5,1.4c0.1,0.5,0.1,1.2,0.1,1.9v8c0,1.6,0,3,0,4.3c0,1.3,0.1,2.5,0.1,3.6c0.1,1,0.5,1.7,1.4,2.2
		c0.8,0.5,2.1,0.7,3.9,0.7c0.9,0,1.9-0.1,2.8-0.1c0.9-0.1,1.7-0.3,2.3-0.6V60.3c0.5-0.9,1.2-1.7,1.9-2.2c0.8-0.5,1.7-0.8,2.9-0.8
		c1.7,0,2.8,0.4,3.3,1.1c0.5,0.7,0.7,1.8,0.7,3.2c0,0.5,0,1.4,0,2.6c0,1.2,0,2.5,0,3.8c0,1.3,0,2.6,0,3.8c0,1.2,0,2.1,0,2.7
		c0,1.2,0.1,2.2,0.2,3c0.1,0.7,0.5,1.3,1,1.7c0.5,0.4,1.2,0.7,2.2,0.9c0.9,0.1,2.2,0.2,3.8,0.2c4.7,0,7.1-1.4,7.1-4.1
		C310.9,75.8,310.9,75.4,310.8,75z"/>
</g>
</svg>
