<?xml version="1.0" encoding="UTF-8" standalone="no"?>
<!-- Created with Inkscape (http://www.inkscape.org/) -->

<svg
   xmlns:dc="http://purl.org/dc/elements/1.1/"
   xmlns:cc="http://creativecommons.org/ns#"
   xmlns:rdf="http://www.w3.org/1999/02/22-rdf-syntax-ns#"
   xmlns:svg="http://www.w3.org/2000/svg"
   xmlns="http://www.w3.org/2000/svg"
   xmlns:sodipodi="http://sodipodi.sourceforge.net/DTD/sodipodi-0.dtd"
   xmlns:inkscape="http://www.inkscape.org/namespaces/inkscape"
   width="100.00001"
   height="68.411316"
   id="svg3199"
   version="1.1"
   inkscape:version="0.47 r22583"
   sodipodi:docname="New document 4">
  <defs
     id="defs3201">
    <inkscape:perspective
       sodipodi:type="inkscape:persp3d"
       inkscape:vp_x="0 : 526.18109 : 1"
       inkscape:vp_y="0 : 1000 : 0"
       inkscape:vp_z="744.09448 : 526.18109 : 1"
       inkscape:persp3d-origin="372.04724 : 350.78739 : 1"
       id="perspective3207" />
    <inkscape:perspective
       id="perspective3181"
       inkscape:persp3d-origin="0.5 : 0.33333333 : 1"
       inkscape:vp_z="1 : 0.5 : 1"
       inkscape:vp_y="0 : 1000 : 0"
       inkscape:vp_x="0 : 0.5 : 1"
       sodipodi:type="inkscape:persp3d" />
  </defs>
  <sodipodi:namedview
     id="base"
     pagecolor="#ffffff"
     bordercolor="#666666"
     borderopacity="1.0"
     inkscape:pageopacity="0.0"
     inkscape:pageshadow="2"
     inkscape:zoom="11.2"
     inkscape:cx="45.679007"
     inkscape:cy="42.827417"
     inkscape:document-units="px"
     inkscape:current-layer="layer1"
     showgrid="false"
     inkscape:window-width="1280"
     inkscape:window-height="944"
     inkscape:window-x="-8"
     inkscape:window-y="-8"
     inkscape:window-maximized="1" />
  <metadata
     id="metadata3204">
    <rdf:RDF>
      <cc:Work
         rdf:about="">
        <dc:format>image/svg+xml</dc:format>
        <dc:type
           rdf:resource="http://purl.org/dc/dcmitype/StillImage" />
        <dc:title></dc:title>
      </cc:Work>
    </rdf:RDF>
  </metadata>
  <g
     inkscape:label="Layer 1"
     inkscape:groupmode="layer"
     id="layer1"
     transform="translate(-511.50947,-733.36405)">
    <g
       id="g3158"
       transform="matrix(0,-1.2171966,-1.2171966,0,1245.8247,1457.6934)">
      <path
         id="path2922"
         style="fill:#ee3224;fill-opacity:1;fill-rule:nonzero;stroke:none"
         d="m 538.876,521.128 56.204,0 0,82.156 -56.204,0 0,-82.156 z" />
      <g
         transform="translate(549.565,563.119)"
         id="g2924">
        <path
           id="path2926"
           style="fill:#ffffff;fill-opacity:1;fill-rule:evenodd;stroke:none"
           d="m 0,0 c 0,-16.332 6.442,-27.851 9.646,-32.787 0.541,-0.832 1.405,-0.354 1.032,0.553 -5.179,12.596 -7.09,20.755 -7.09,32.234 0,11.479 1.911,19.638 7.09,32.234 0.373,0.907 -0.491,1.386 -1.032,0.553 C 6.442,27.851 0,16.332 0,0" />
      </g>
      <g
         transform="translate(573.241,539.982)"
         id="g2928">
        <path
           id="path2930"
           style="fill:#ffffff;fill-opacity:1;fill-rule:nonzero;stroke:none"
           d="m 0,0 c -2.177,0 -2.786,-2.676 -3.136,-4.043 -0.173,-0.676 -0.517,-2.035 -1.38,-2.082 -0.941,-0.05 -1.444,1.043 -1.444,2.115 0,1.121 0.448,1.851 1.27,2.489 0.363,0.281 0.447,0.624 0.316,1.069 -0.146,0.496 -0.428,1.07 -0.806,1.601 -0.217,0.305 -0.558,0.427 -0.968,0.256 -2.065,-0.865 -2.726,-3.185 -2.726,-5.176 0,-3.143 1.37,-5.891 4.164,-6.567 2.747,-0.664 3.756,1.558 4.345,3.594 0.382,1.316 0.71,2.303 1.599,2.23 0.95,-0.078 1.54,-2.205 -0.178,-3.673 -0.429,-0.366 -0.473,-0.735 -0.318,-1.17 0.16,-0.451 0.514,-1.195 0.665,-1.442 0.307,-0.503 0.613,-0.596 1.135,-0.306 1.35,0.75 2.232,2.573 2.232,4.641 C 4.77,-2.558 2.73,0 0,0" />
      </g>
      <g
         transform="translate(578.935,583.565)"
         id="g2932">
        <path
           id="path2934"
           style="fill:#ffffff;fill-opacity:1;fill-rule:nonzero;stroke:none"
           d="m 0,0 c -2.19,-0.082 -7.274,-0.278 -7.274,-0.278 l 0,5.145 C -5.118,3.703 -1.969,1.678 0.031,0.182 0.236,0.029 0,0 0,0 M 4.17,-0.258 C 4.121,0.583 4.049,1.295 3.281,1.944 0.809,4.033 -6.637,8.855 -13.414,12.65 c -0.493,0.276 -0.932,0.066 -0.931,-0.501 0.002,-0.648 0,-2.48 0,-2.79 0,-0.465 0.103,-0.776 0.632,-1.082 0.571,-0.331 2.029,-1.158 3.247,-1.869 l 0,-6.68 c 0,0 -2.281,-0.07 -3.124,-0.102 -0.455,-0.017 -0.755,-0.293 -0.755,-0.888 0,-0.596 0,-2.042 0,-2.468 0,-0.426 0.197,-0.785 0.775,-0.766 2.389,0.081 14.094,0.674 16.83,0.88 0.672,0.05 0.963,0.374 0.963,1.164 0,0.747 -0.017,1.593 -0.053,2.194" />
      </g>
      <g
         transform="translate(567.218,549.154)"
         id="g2936">
        <path
           id="path2938"
           style="fill:#ffffff;fill-opacity:1;fill-rule:nonzero;stroke:none"
           d="m 0,0 c 0,-2.339 1.917,-3.354 3.97,-3.94 2.051,-0.585 3.969,-0.808 3.969,1.549 0,2.36 -1.918,3.349 -3.969,3.937 C 1.917,2.141 0,2.363 0,0 z m -2.85,0.262 c 0,4.2 2.769,6.128 6.82,5.266 4.052,-0.861 6.822,-3.97 6.822,-8.169 0,-4.212 -2.77,-6.135 -6.822,-5.27 -4.051,0.857 -6.82,3.962 -6.82,8.173" />
      </g>
      <g
         transform="translate(566.102,557.161)"
         id="g2940">
        <path
           id="path2942"
           style="fill:#ffffff;fill-opacity:1;fill-rule:nonzero;stroke:none"
           d="m 0,0 c 3.998,-1.016 7.783,-1.962 10.473,-2.58 0.652,-0.149 1.079,0.246 1.079,0.757 0,0.369 0.001,1.426 -0.019,1.766 -0.035,0.585 -0.319,0.923 -0.799,1.062 -0.11,0.032 -0.236,0.063 -0.528,0.139 -0.111,0.03 -0.111,0.075 -0.017,0.125 0.473,0.25 1.571,1.327 1.571,3.213 0,3.414 -3.306,5.791 -6.355,6.767 C 3.472,11.866 1.253,11.923 0.069,11.133 -1.022,10.406 -1.72,9.256 -1.735,7.471 -1.748,5.983 -1.247,4.682 -0.441,4.031 -0.349,3.957 -0.384,3.888 -0.485,3.917 -3.474,4.78 -4.283,6.618 -4.286,8.039 c -0.002,0.931 0.385,1.619 0.592,1.959 0.319,0.524 0.338,0.7 0.209,1.183 -0.143,0.531 -0.394,1.152 -0.734,1.65 -0.404,0.591 -0.814,0.48 -1.168,0.263 C -7.221,11.97 -7.683,9.337 -7.683,7.795 -7.683,3.964 -5.071,1.289 0,0 z M 4.985,7.886 C 7.614,7.133 8.965,5.872 8.911,4.132 8.843,1.921 6.673,2.371 5.005,2.855 2.468,3.591 1.138,4.746 1.283,6.574 1.431,8.418 3.584,8.287 4.985,7.886" />
      </g>
      <g
         transform="translate(577.067,566.351)"
         id="g2944">
        <path
           id="path2946"
           style="fill:#ffffff;fill-opacity:1;fill-rule:nonzero;stroke:none"
           d="m 0,0 c 0.221,-0.23 0.581,-0.103 0.581,0.297 0,2.165 0,4.238 -1.411,5.775 -0.033,0.036 -0.023,0.093 0.05,0.074 0.109,-0.029 0.386,-0.087 0.69,-0.16 C 0.271,5.899 0.581,6.101 0.581,6.506 0.58,7.146 0.574,7.82 0.567,8.628 0.563,9.106 0.386,9.376 -0.158,9.493 c -1.074,0.23 -9.269,1.908 -11.728,2.382 -0.334,0.064 -0.592,-0.208 -0.592,-0.504 0,-0.262 0,-2.329 0,-2.565 0,-0.466 0.223,-0.691 0.599,-0.769 1.945,-0.399 4.571,-0.928 5.487,-1.11 1.346,-0.266 2.41,-0.813 2.816,-1.344 C -3.191,5.08 -2.925,4.384 -2.851,2.987 -2.818,2.365 -2.646,2.127 -2.156,1.789 -1.343,1.227 -0.71,0.737 0,0" />
      </g>
    </g>
  </g>
</svg>
