<svg xmlns="http://www.w3.org/2000/svg" viewBox="0 0 1000 500"><path d="m151.65 231.17c-16.55-3.5729-42.24-15.431-49.165-22.694-4.1479-4.3504-1.5838-4.4416 124.87-4.4416 84.417 0 129.1 0.8132 129.1 2.3495 0 1.4905-18.699 2.3495-51.146 2.3495h-51.146l-11.556 7.0382c-25.69 15.647-61.623 21.731-90.954 15.398zm691.21 1.0068c-48.616-9.2621-85.042-40.824-95.151-82.444-3.5526-14.627-3.1571-48.148 0.73158-61.999 7.1151-25.344 23.036-46.535 46.928-62.46 22.752-15.166 42.525-20.937 77.195-22.532 26.679-1.227 52.547 2.1123 86.289 11.139 9.0746 2.4277 9.4715 2.9297 7.9148 10.01-0.90134 4.0999-2.2988 14.591-3.1055 23.314-1.3591 14.696-1.8944 15.859-7.296 15.859-5.4537 0-5.8293-0.88013-5.8293-13.657 0-11.847-0.90219-14.47-6.8072-19.785-22.981-20.685-87.162-22.202-119.64-2.8276-41.292 24.631-56.451 89.79-32.138 138.14 11.058 21.993 24.531 35.147 46.604 45.501 18.249 8.5606 19.769 8.8592 45.013 8.842 18.826-0.0129 29.758-1.2136 39.122-4.2971l12.996-4.2793v-26.748c0-31.034-0.42679-31.612-23.353-31.612-12.637 0-13.777-0.43765-13.779-5.2864l-2e-3 -5.2864 40.226 0.53388c33.587 0.44577 40.357 1.1201 41.021 4.0858 0.44244 1.9764-1.9474 4.738-5.3878 6.2258-5.4976 2.3776-6.37 4.5698-7.8717 19.78-0.92889 9.4086-0.91058 23.472 0.0406 31.251l1.7295 14.144-19.508 5.8494c-33.056 9.9117-79.199 13.629-105.94 8.5337zm-474.03-6.6941c0-3.4888 2.5009-4.7112 12.116-5.9218 6.6636-0.83902 13.625-3.2516 15.471-5.3614 2.6976-3.0841 3.3552-21.884 3.3552-95.919 0-74.033-0.6577-92.835-3.3552-95.922-1.8454-2.1116-8.8073-4.5258-15.471-5.3648-9.6147-1.2106-12.116-2.433-12.116-5.9218 0-4.1451 2.758-4.3963 48.269-4.3963 45.635 0 48.269 0.24165 48.269 4.4283 0 3.5987-2.5181 4.7269-13.441 6.0223-7.3926 0.8767-14.857 3.2132-16.587 5.1921-2.4224 2.7705-3.174 24.876-3.2674 96.097-0.13763 104.9-1.3647 98.823 20.45 101.28 10.33 1.1613 12.846 2.3003 12.846 5.8158 0 4.1132-2.8547 4.3718-48.269 4.3718-45.511 0-48.269-0.25119-48.269-4.3963zm118.82 1.2626c0-1.9424 3.7266-5.7177 8.2814-8.3896l8.2814-4.858 1.6199-28.596c2.0628-36.413 1.7793-140.83-0.42006-154.73l-1.673-10.573-12.996-2.0926c-10.227-1.6468-12.996-3.0232-12.996-6.4611 0-4.1598 3.4604-4.3666 72.404-4.3278 98.888 0.055683 115.48 3.8232 143.55 32.604 22.368 22.931 30.617 53.169 24.262 88.931-5.8644 33.001-30.663 68.522-58.742 84.141-26.64 14.818-33.412 15.907-105.36 16.937-57.711 0.82598-66.215 0.49414-66.215-2.5839zm124.17-14.363c19.224-3.8673 28.295-7.9412 40.698-18.278 32.054-26.713 41.946-88.949 20.702-130.25-8.6476-16.813-20.149-27.241-39.414-35.734-12.485-5.5045-17.087-6.1198-50.857-6.8005-20.422-0.41161-38.668 0.23845-40.549 1.4446-2.7149 1.7415-3.6765 15.426-4.6708 66.475-0.68864 35.355-0.43403 77.703 0.56581 94.107l1.8179 29.824 7.8036 0.93053c18.274 2.1791 48.584 1.3645 63.904-1.7174zm-611.81-12.992c0-1.3824 17.27-2.5505 43.423-2.9369l43.423-0.64159-6.4726-8.2233c-14.315-18.187-28.326-16.447 132.42-16.447 94.121 0 143.66 0.81016 143.66 2.3495 0 1.4619-14.027 2.3495-37.13 2.3495-20.422 0-37.13 0.90843-37.13 2.0187 0 1.1103-4.5503 6.9253-10.112 12.922l-10.112 10.904h-130.98c-83.609 0-130.98-0.83016-130.98-2.2953zm0-37.628c0-1.4697 12.186-2.3683 32.118-2.3683h32.118l-2.4141-6.0267c-1.3277-3.3147-2.4141-8.0724-2.4141-10.573 0-4.4446 3.3159-4.5461 148.52-4.5461 97.363 0 148.52 0.80927 148.52 2.3495 0 1.4349-11.483 2.3495-29.498 2.3495h-29.498l-7.0129 19.971-145.22 0.60616c-96.353 0.40219-145.22-0.19078-145.22-1.7621zm0-32.912c0-1.4239 10.726-2.3495 27.229-2.3495h27.229v-6.8564c0-15.419-12.062-14.289 152.5-14.289 98.012 0 149.49 0.8091 149.49 2.3495 0 1.4301-11.139 2.3495-28.466 2.3495h-28.466v21.146h-149.76c-98.188 0-149.76-0.80906-149.76-2.3495zm0-37.592c0-1.4346 11.462-2.3495 29.436-2.3495h29.436l1.705-6.448c3.4229-12.945-3.8236-12.348 149.98-12.348 89.774 0 143.67 0.84932 144.6 2.2786 0.92077 1.4141-10.528 2.5284-30.177 2.9369-19.753 0.41069-31.5 1.5584-31.233 3.0516 0.23541 1.3163 1.1916 5.2811 2.1248 8.8107l1.6969 6.4173h-148.79c-97.542 0-148.79-0.80923-148.79-2.3495zm0-35.243c0-1.4617 14.002-2.3495 37.056-2.3495h37.056l10.981-14.097h135.68c88.802 0 135.68 0.81176 135.68 2.3495 0 1.4721-15.359 2.3495-41.128 2.3495h-41.128l3.9977 5.7911c2.1987 3.1851 3.9977 6.3569 3.9977 7.0485s-63.492 1.2574-141.09 1.2574c-92.412 0-141.09-0.81065-141.09-2.3495zm0-35.243c0-1.4955 19.891-2.3495 54.722-2.3495h54.722l15.206-6.8484c28.292-12.742 63.921-15.194 90.396-6.2207 8.7821 2.9765 23.211 3.671 76.263 3.671 42.99 0 64.907 0.80581 63.901 2.3495-0.94976 1.4586-23.766 2.3554-60.173 2.365l-58.643 0.01645 14.852 9.3361-125.62 0.01645c-82.109 0.009392-125.62-0.79835-125.62-2.334z" stroke-width="2.4116"/></svg>