<svg width="58" height="58" viewBox="0 0 58 58" xmlns="http://www.w3.org/2000/svg"><title>lw_icon_purple_2016_RGB</title><path d="M58 29C58 13.01 44.99 0 29 0S0 13.01 0 29s13.01 29 29 29 29-13.01 29-29zm-3.365 0c0 14.134-11.5 25.634-25.635 25.634-14.135 0-25.634-11.5-25.634-25.634 0-14.135 11.5-25.634 25.634-25.634 14.135 0 25.635 11.5 25.635 25.634zm-8.503-3.387c.052-.42-.25-.8-.67-.844l-1.69-.008c-.37 0-.687.268-.75.632l-.008.05-.013.075-.525 3.07-1.402 7.94c-.033.283-.2.346-.3.346-.168 0-.234-.125-.302-.346l-3.206-10.14c-.267-.877-.936-1.38-1.704-1.38-.8-.03-1.503.407-1.804 1.32l-3.242 10.2c-.1.283-.2.346-.3.346-.168 0-.267-.125-.3-.346l-1.202-6.828h-.005l-.434-2.463-.257-1.505-.047-.29-.01-.05c-.062-.365-.378-.632-.748-.633l-1.75.002c-.417.045-.716.428-.664.85l.014.1.102.62.433 2.4.17.968.074.417.463 2.637.686 3.93c.3 1.664 1.436 3.014 3.407 3.014.91 0 1.713-.478 2.307-1.142.47-.525.783-1.145 1.018-1.83.12-.34.216-.69.324-1.038.176-.564.35-1.128.527-1.693l.564-1.81.433-1.39.14-.45 1.904 6.435c.468 1.63 1.37 2.92 3.342 2.92 1.102.03 2.973-.534 3.408-2.858l1.437-8.098.57-3.033.01-.052.002-.047zM24.72 38.973v-1.488c0-.403-.328-.73-.73-.73h-7.195c-.437 0-.673-.317-.673-.666V19.026c0-.402-.327-.73-.73-.73H13.58c-.402 0-.73.328-.73.73v16.968c0 2.628 1.72 3.707 3.81 3.707h7.33c.402 0 .73-.327.73-.73z" fill="#7C2582" fill-rule="evenodd"/></svg>