<svg xmlns="http://www.w3.org/2000/svg" id="Layer_1" x="0" y="0" enable-background="new 0 0 198 45.7" version="1.1" viewBox="0 0 198 45.7" xml:space="preserve"><style>.logo-from-idg{fill-rule:evenodd;clip-rule:evenodd;fill:#fff}</style><path id="Fill-1" d="M26.7 1.7l-10 17h-.1L6.5 1.7H0v31h6.6v-18h.2l8.6 14.5h1.9L26 14.7h.2v18H33v-31z" class="logo-from-idg"/><g id="Group-22"><path id="Fill-2" d="M52.7 26.8v-2.3c-1-.9-3-1.7-5.4-1.7-3.8 0-5.2 1.5-5.2 3.3 0 2 1.6 3.3 4.3 3.3 3.3 0 5.6-1.9 6.3-2.6M37.3 11.9c2.2-1.1 6.4-2.5 10.9-2.5 5.4 0 10.8 1.8 10.8 7.1V29c0 1.1.1 2.8.7 4.6h-6.3c-.2-.7-.4-1.8-.6-2.7-1.7 1.7-3.8 3.3-7.9 3.3-5.7 0-9.3-3.4-9.3-8 0-4.4 3.7-7.8 10.3-7.8 2.5 0 5 .6 6.7 1.9V18c0-2.4-2.1-3.5-4.9-3.5-3 0-6.7 1.3-8.4 2.2l-2-4.8" class="logo-from-idg"/><path id="Fill-4" d="M80.1 17.6c-1.9-1.9-4.1-2.8-6-2.8-3.5 0-6.2 2.7-6.2 6.9s3 7.1 6.5 7.1c2.4 0 4.5-1.4 6.3-3.2l3.9 3.9c-1 1.2-4.9 4.6-10.9 4.6-6.8 0-12.6-5-12.6-12.5S66.7 9.2 73.7 9.2c3.6 0 7.4 1.2 10.5 4l-4.1 4.4" class="logo-from-idg"/><path id="Fill-6" d="M105.7 10.2l4.2 14.9h.3l3.6-14.9h6.6L113 33.5h-6.1l-4.1-14.3h-.3l-4.1 14.3h-6.1l-7.4-23.3h6.7l3.7 14.9h.3l4.3-14.9z" class="logo-from-idg"/><path id="Fill-8" d="M132.2 29c4 0 6.3-3.4 6.3-7.2 0-3.8-2.3-7-6.3-7-3.9 0-6.1 3.2-6.1 7-.1 3.8 2.2 7.2 6.1 7.2m0-19.6c7.6 0 12.8 5.4 12.8 12.4s-5.2 12.5-12.8 12.5c-7.6 0-12.7-5.6-12.7-12.5s5.1-12.4 12.7-12.4" class="logo-from-idg"/><path id="Fill-10" d="M153.4 18.5v15H147V16.8c0-2-.2-4-.7-6.6h5.9c.2 1 .4 2.3.5 3.5 1.4-2.4 3.1-4.3 6.1-4.3 1.2 0 2.8.3 3.6 1l-1.8 5.8c-.7-.3-2.3-.7-3.2-.7-1.7 0-2.7 1.3-4 3" class="logo-from-idg"/><defs><filter id="Adobe_OpacityMaskFilter" width="6.4" height="33.5" x="164.4" y="0" filterUnits="userSpaceOnUse"><feColorMatrix values="1 0 0 0 0 0 1 0 0 0 0 0 1 0 0 0 0 0 1 0"/></filter></defs><mask id="mask-2_1_" width="6.4" height="33.5" x="164.4" y="0" maskUnits="userSpaceOnUse"><g filter="url(#Adobe_OpacityMaskFilter)"><path id="path-1_1_" d="M0 45.7h198V0H0z" class="logo-from-idg"/></g></mask><path id="Fill-12" fill="#fff" fill-rule="evenodd" d="M164.4 33.5h6.5V0h-6.5z" clip-rule="evenodd" mask="url(#mask-2_1_)"/><defs><filter id="Adobe_OpacityMaskFilter_1_" width="25" height="34.2" x="173" y="0" filterUnits="userSpaceOnUse"><feColorMatrix values="1 0 0 0 0 0 1 0 0 0 0 0 1 0 0 0 0 0 1 0"/></filter></defs><mask id="mask-2_2_" width="25" height="34.2" x="173" y="0" maskUnits="userSpaceOnUse"><g filter="url(#Adobe_OpacityMaskFilter_1_)"><path id="path-1_2_" d="M0 45.7h198V0H0z" class="logo-from-idg"/></g></mask><path id="Fill-14" fill="#fff" fill-rule="evenodd" d="M180 21.7c0 4.3 2.4 7.1 5.4 7.1 2.8 0 4.8-1.7 5.7-2.6v-8.8c-1.7-1.6-3.7-2.6-5.7-2.6-3.1 0-5.4 2.7-5.4 6.9m12 11.8c-.1-.8-.2-2-.3-2.8-1.4 1.6-4 3.4-7.2 3.4-6.2 0-11.4-4.9-11.4-12.5 0-7.5 5.2-12.4 11.4-12.4 2.3 0 4.7 1.1 6.6 2.9V0h6.4v26.9c0 1.9 0 3.9.5 6.7h-6" clip-rule="evenodd" mask="url(#mask-2_2_)"/><defs><filter id="Adobe_OpacityMaskFilter_2_" width="5.9" height="6.6" x="137.5" y="38.9" filterUnits="userSpaceOnUse"><feColorMatrix values="1 0 0 0 0 0 1 0 0 0 0 0 1 0 0 0 0 0 1 0"/></filter></defs><mask id="mask-2_3_" width="5.9" height="6.6" x="137.5" y="38.9" maskUnits="userSpaceOnUse"><g filter="url(#Adobe_OpacityMaskFilter_2_)"><path id="path-1_3_" d="M0 45.7h198V0H0z" class="logo-from-idg"/></g></mask><path id="Fill-15" fill="#fff" fill-rule="evenodd" d="M137.5 38.9h5.9v.8h-5v2.1h4.8v.8h-4.8v2.9h-.9z" clip-rule="evenodd" mask="url(#mask-2_3_)"/><defs><filter id="Adobe_OpacityMaskFilter_3_" width="7.7" height="6.6" x="145.2" y="38.9" filterUnits="userSpaceOnUse"><feColorMatrix values="1 0 0 0 0 0 1 0 0 0 0 0 1 0 0 0 0 0 1 0"/></filter></defs><mask id="mask-2_4_" width="7.7" height="6.6" x="145.2" y="38.9" maskUnits="userSpaceOnUse"><g filter="url(#Adobe_OpacityMaskFilter_3_)"><path id="path-1_4_" d="M0 45.7h198V0H0z" class="logo-from-idg"/></g></mask><path id="Fill-16" fill="#fff" fill-rule="evenodd" d="M146.1 39.7v2.4h3.3c.5 0 1.2 0 1.6-.5.2-.2.2-.5.2-.7 0-.3-.1-.5-.2-.7-.3-.5-.8-.5-1.2-.5h-3.7zm-.9-.8h4.5c.6 0 1.3 0 1.9.5.2.2.6.6.6 1.4 0 1.6-1.4 1.8-1.8 1.9l2.5 2.8h-1.2l-2.3-2.7h-3.2v2.7h-.9v-6.6z" clip-rule="evenodd" mask="url(#mask-2_4_)"/><defs><filter id="Adobe_OpacityMaskFilter_4_" width="8.1" height="7" x="154" y="38.7" filterUnits="userSpaceOnUse"><feColorMatrix values="1 0 0 0 0 0 1 0 0 0 0 0 1 0 0 0 0 0 1 0"/></filter></defs><mask id="mask-2_5_" width="8.1" height="7" x="154" y="38.7" maskUnits="userSpaceOnUse"><g filter="url(#Adobe_OpacityMaskFilter_4_)"><path id="path-1_5_" d="M0 45.7h198V0H0z" class="logo-from-idg"/></g></mask><path id="Fill-17" fill="#fff" fill-rule="evenodd" d="M154.9 42.2c0 .5.1 1.2.6 1.7.6.7 1.6 1 2.6 1 2.5 0 3.1-1.6 3.1-2.7 0-1.8-1.4-2.7-3.2-2.7-1.5.1-3.1.7-3.1 2.7m7.2.1c0 2.3-1.9 3.4-4 3.4-1 0-2-.2-2.7-.7-.7-.5-1.3-1.3-1.3-2.7 0-2.5 2-3.6 4-3.6 2.2 0 4 1.4 4 3.6" clip-rule="evenodd" mask="url(#mask-2_5_)"/><defs><filter id="Adobe_OpacityMaskFilter_5_" width="8" height="6.6" x="164" y="38.9" filterUnits="userSpaceOnUse"><feColorMatrix values="1 0 0 0 0 0 1 0 0 0 0 0 1 0 0 0 0 0 1 0"/></filter></defs><mask id="mask-2_6_" width="8" height="6.6" x="164" y="38.9" maskUnits="userSpaceOnUse"><g filter="url(#Adobe_OpacityMaskFilter_5_)"><path id="path-1_6_" d="M0 45.7h198V0H0z" class="logo-from-idg"/></g></mask><path id="Fill-18" fill="#fff" fill-rule="evenodd" d="M164 38.9h1.3l2.1 4.3c.3.7.4.9.6 1.5.2-.6.3-.8.6-1.5l2.1-4.4h1.3v6.6h-.9v-3.8c0-1.3 0-1.5.1-2-.2.5-.2.6-.5 1.2l-2.3 4.7h-.9l-2.1-4.3c-.4-.8-.5-1-.7-1.5.1.5.1.6.1 1.7v4.1h-.8v-6.6z" clip-rule="evenodd" mask="url(#mask-2_6_)"/><defs><filter id="Adobe_OpacityMaskFilter_6_" width="1" height="6.6" x="177.9" y="38.9" filterUnits="userSpaceOnUse"><feColorMatrix values="1 0 0 0 0 0 1 0 0 0 0 0 1 0 0 0 0 0 1 0"/></filter></defs><mask id="mask-2_7_" width="1" height="6.6" x="177.9" y="38.9" maskUnits="userSpaceOnUse"><g filter="url(#Adobe_OpacityMaskFilter_6_)"><path id="path-1_7_" d="M0 45.7h198V0H0z" class="logo-from-idg"/></g></mask><path id="Fill-19" fill="#fff" fill-rule="evenodd" d="M177.9 45.5h1v-6.6h-1z" clip-rule="evenodd" mask="url(#mask-2_7_)"/><defs><filter id="Adobe_OpacityMaskFilter_7_" width="7" height="6.6" x="181.3" y="38.9" filterUnits="userSpaceOnUse"><feColorMatrix values="1 0 0 0 0 0 1 0 0 0 0 0 1 0 0 0 0 0 1 0"/></filter></defs><mask id="mask-2_8_" width="7" height="6.6" x="181.3" y="38.9" maskUnits="userSpaceOnUse"><g filter="url(#Adobe_OpacityMaskFilter_7_)"><path id="path-1_8_" d="M0 45.7h198V0H0z" class="logo-from-idg"/></g></mask><path id="Fill-20" fill="#fff" fill-rule="evenodd" d="M182.3 39.6v5.1h1.9c.8 0 1.9 0 2.6-.9.4-.5.5-1.1.5-1.7 0-.9-.3-1.5-.7-1.8-.6-.6-1.4-.6-2-.6h-2.3zm-1-.7h3.3c.8 0 1.7 0 2.5.7.5.4 1.1 1.3 1.1 2.5s-.5 2-.9 2.4c-.9.9-2.2 1-3.4 1h-2.7v-6.6z" clip-rule="evenodd" mask="url(#mask-2_8_)"/><defs><filter id="Adobe_OpacityMaskFilter_8_" width="7.5" height="7" x="189.9" y="38.7" filterUnits="userSpaceOnUse"><feColorMatrix values="1 0 0 0 0 0 1 0 0 0 0 0 1 0 0 0 0 0 1 0"/></filter></defs><mask id="mask-2_9_" width="7.5" height="7" x="189.9" y="38.7" maskUnits="userSpaceOnUse"><g filter="url(#Adobe_OpacityMaskFilter_8_)"><path id="path-1_9_" d="M0 45.7h198V0H0z" class="logo-from-idg"/></g></mask><path id="Fill-21" fill="#fff" fill-rule="evenodd" d="M196.6 44.6c-.1.1-.2.2-.4.3-.5.4-1.4.7-2.5.7-2.3 0-3.8-1.6-3.8-3.5 0-.9.4-1.6.6-1.9.6-.9 1.9-1.6 3.4-1.6s2.5.6 2.9 1c.4.3.5.6.7.8l-.9.3c-.1-.2-.2-.3-.4-.5-.6-.5-1.3-.7-2.1-.7-1.6 0-3 .9-3 2.6 0 .7.3 1.2.5 1.5.7 1.1 2.1 1.2 2.6 1.2.6 0 1.6-.2 2.2-.9.4-.5.5-.8.5-1.2H194V42h3.7v3.5h-.8v-.9z" clip-rule="evenodd" mask="url(#mask-2_9_)"/></g></svg>
