<svg xmlns="http://www.w3.org/2000/svg" xmlns:xlink="http://www.w3.org/1999/xlink" viewBox="0 0 257.01 105.56"><defs><style>.cls-1{fill:url(#New_Gradient_Swatch_12);}.cls-2{fill:#fff;}.cls-3{fill:url(#Yellow_Orange_Radial_cop);}.cls-4{fill:url(#New_Gradient_Swatch_12-2);}.cls-5{fill:#231f20;}.cls-6{fill:none;stroke:#231f20;stroke-width:0.38px;}</style><radialGradient id="New_Gradient_Swatch_12" cx="47.13" cy="52.27" r="49.68" gradientTransform="translate(-0.8 1.29) rotate(-0.49)" gradientUnits="userSpaceOnUse"><stop offset="0.27" stop-color="#fff"/><stop offset="0.49" stop-color="#fbfbfc"/><stop offset="0.7" stop-color="#f0f1f3"/><stop offset="0.91" stop-color="#dcdfe3"/><stop offset="1" stop-color="#d2d5db"/></radialGradient><radialGradient id="Yellow_Orange_Radial_cop" cx="85.08" cy="52.26" r="49.68" gradientTransform="translate(-0.8 1.29) rotate(-0.49)" gradientUnits="userSpaceOnUse"><stop offset="0.19" stop-color="#fde92b"/><stop offset="0.61" stop-color="#f6ba31"/><stop offset="1" stop-color="#ef8b38"/></radialGradient><radialGradient id="New_Gradient_Swatch_12-2" cx="124.23" cy="52.27" r="49.68" xlink:href="#New_Gradient_Swatch_12"/></defs><title>newegg</title><path class="cls-1" d="M8.48,34.51c-14.57,23.07-9.9,52.17,10.44,65S67.54,104.07,82.1,81s17-63.43-3.34-76.26S23,11.45,8.48,34.51Z"/><path class="cls-2" d="M46.43,34.19C57.31,17,79.81,1.69,99,.42c-20-1-45.18,15.25-56.9,33.8-14.56,23.07-9.89,52.17,10.45,65a39.54,39.54,0,0,0,23.72,6,39.21,39.21,0,0,1-19.38-6C36.53,86.35,31.86,57.25,46.43,34.19Z"/><path class="cls-3" d="M116.71,4.41C111.57,1.16,105.47,0,99,.42,79.81,1.69,57.31,17,46.43,34.19c-14.57,23.06-9.9,52.16,10.44,65a39.21,39.21,0,0,0,19.38,6c16.36.7,33.51-8.21,43.8-24.51C134.62,57.61,137.05,17.24,116.71,4.41Z"/><path class="cls-2" d="M85.58,33.85C96.46,16.62,119,1.35,138.13.09c-20-1-45.18,15.25-56.89,33.8C66.67,57,71.35,86.05,91.68,98.9a39.69,39.69,0,0,0,23.73,5.95,39.25,39.25,0,0,1-19.39-6C75.69,86,71,56.92,85.58,33.85Z"/><path class="cls-4" d="M155.86,4.08c-5.14-3.25-11.25-4.43-17.73-4C119,1.35,96.46,16.62,85.58,33.85,71,56.92,75.69,86,96,98.86a39.25,39.25,0,0,0,19.39,6c16.35.7,33.5-8.22,43.79-24.51C173.76,57.28,176.19,16.91,155.86,4.08Z"/><path class="cls-5" d="M211.4,55.52l3.52,0,0,3.09-3.53,0Z"/><path class="cls-5" d="M224.45,56.9l3.14.31a4,4,0,0,1-.85,1.59,3.72,3.72,0,0,1-1.49,1.05,6.45,6.45,0,0,1-2.34.39,8.79,8.79,0,0,1-2.28-.22A3.95,3.95,0,0,1,218,58a5,5,0,0,1,.05-4A3.69,3.69,0,0,1,219,53a4.35,4.35,0,0,1,1.17-.73,7.06,7.06,0,0,1,2.47-.39,6.1,6.1,0,0,1,3.22.68,3.73,3.73,0,0,1,1.56,2l-3.1.42a1.35,1.35,0,0,0-.54-.79,1.77,1.77,0,0,0-1-.26,1.69,1.69,0,0,0-1.31.56,2.45,2.45,0,0,0-.49,1.67,2.09,2.09,0,0,0,.52,1.51,1.74,1.74,0,0,0,1.28.51,1.87,1.87,0,0,0,1.08-.32A1.74,1.74,0,0,0,224.45,56.9Z"/><path class="cls-5" d="M232.34,54.4a1.55,1.55,0,0,1,1.19-.54,1.46,1.46,0,0,1,1.13.51,2.28,2.28,0,0,1,.48,1.55,2.42,2.42,0,0,1-.45,1.63,1.56,1.56,0,0,1-2.32,0,2.39,2.39,0,0,1-.48-1.59A2.3,2.3,0,0,1,232.34,54.4Zm-2.17,4.79a5.42,5.42,0,0,0,3.36,1,5.29,5.29,0,0,0,3.64-1.21,3.92,3.92,0,0,0,1.29-3,3.87,3.87,0,0,0-1.09-2.77,5.16,5.16,0,0,0-3.92-1.37A5.1,5.1,0,0,0,229.88,53a4.06,4.06,0,0,0,.29,6.22Z"/><path class="cls-5" d="M239.91,51.87l3.09,0V53A4.19,4.19,0,0,1,244.35,52a3.82,3.82,0,0,1,1.63-.32,3.23,3.23,0,0,1,1.64.33,2.57,2.57,0,0,1,1,1,5,5,0,0,1,1.4-1.08,3.76,3.76,0,0,1,1.59-.3,2.9,2.9,0,0,1,2.16.75,3.22,3.22,0,0,1,.8,2.39l.05,5-3.33,0,0-4.57a1.19,1.19,0,0,0-.23-.81,1,1,0,0,0-.82-.4,1.19,1.19,0,0,0-.93.4,1.83,1.83,0,0,0-.34,1.26l0,4.14-3.32,0,0-4.42a2.39,2.39,0,0,0-.07-.72,1.05,1.05,0,0,0-.37-.49,1.11,1.11,0,0,0-.6-.17,1.21,1.21,0,0,0-.93.41,1.9,1.9,0,0,0-.36,1.32l0,4.1-3.32,0Z"/><path class="cls-5" d="M90.55,41.91l-.79,2.43a8.94,8.94,0,0,1,2.69-2.2,6.89,6.89,0,0,1,3.08-.74,4.39,4.39,0,0,1,3.1.94,3.12,3.12,0,0,1,1,2.45,23.69,23.69,0,0,1-.91,4.93L94,68.19l-8,.07L90.69,50a19.38,19.38,0,0,0,.7-3.31c0-.4-.29-.6-.82-.59a1.33,1.33,0,0,0-1.22.69,19.14,19.14,0,0,0-1.17,3.67L83.56,68.28l-8,.07L82.38,42Z"/><path class="cls-5" d="M118.19,55.3l-10.33.08-1.48,5.71a6.37,6.37,0,0,0-.34,2.3q.12.51.84.51a1.6,1.6,0,0,0,1.37-.69,9.42,9.42,0,0,0,1-2.66l.9-3.49,7.61-.06-.5,1.94A20.61,20.61,0,0,1,116,62.7a11,11,0,0,1-2.16,2.82,10.1,10.1,0,0,1-3.44,2.25,12.38,12.38,0,0,1-4.54.78,10.9,10.9,0,0,1-4.27-.69,4.93,4.93,0,0,1-2.5-2,5.74,5.74,0,0,1-.77-2.81A19.09,19.09,0,0,1,99,58.59l2-7.69a16.17,16.17,0,0,1,2.34-5.46,9.41,9.41,0,0,1,3.83-3.08,12.61,12.61,0,0,1,5.14-1.1,9.07,9.07,0,0,1,5.22,1.23,4.8,4.8,0,0,1,2.19,3.37,15.66,15.66,0,0,1-.65,5.94Zm-6.9-4.2.5-1.94a9.45,9.45,0,0,0,.46-2.66.62.62,0,0,0-.72-.59,1.25,1.25,0,0,0-1.16.52,12.86,12.86,0,0,0-.91,2.74l-.5,1.94Z"/><path class="cls-5" d="M150.17,41.4l-10,26.39-8.61.08c.36-3.22.92-7.48,1.65-12.79q-1.33,3.53-2.83,7.07L128,67.9l-8.61.07,3.43-26.34,6.84-.06q-.13,1-2.15,15.15.58-1.52,5.75-15.18l6.53-.06-2.26,15.15q2.13-6.69,5.75-15.17Z"/><path class="cls-5" d="M166.68,54.82l-10.33.09-1.48,5.7a6.69,6.69,0,0,0-.34,2.31c.08.34.35.51.84.51a1.64,1.64,0,0,0,1.38-.7,9.68,9.68,0,0,0,1-2.66l.9-3.48,7.61-.06-.5,1.94a19.87,19.87,0,0,1-1.28,3.76A11.45,11.45,0,0,1,162.3,65a10,10,0,0,1-3.43,2.26,12.48,12.48,0,0,1-4.55.78,10.74,10.74,0,0,1-4.27-.7,4.86,4.86,0,0,1-2.5-2,5.69,5.69,0,0,1-.76-2.81,18.14,18.14,0,0,1,.74-4.48l2-7.68A16.58,16.58,0,0,1,151.86,45a9.3,9.3,0,0,1,3.84-3.08,12.67,12.67,0,0,1,5.13-1.11A9.09,9.09,0,0,1,166.05,42a4.88,4.88,0,0,1,2.2,3.36,15.74,15.74,0,0,1-.66,5.95Zm-6.9-4.19.5-1.94a9.86,9.86,0,0,0,.46-2.66.62.62,0,0,0-.72-.6,1.29,1.29,0,0,0-1.16.52,12.64,12.64,0,0,0-.9,2.75l-.51,1.94Z"/><path class="cls-5" d="M191.07,41l-5.26,20.32a50.43,50.43,0,0,1-1.58,5.33,7.63,7.63,0,0,1-2,2.56,10.22,10.22,0,0,1-3.72,2.07,17.79,17.79,0,0,1-5.33.75,10.67,10.67,0,0,1-5.82-1.25c-1.31-.86-1.67-2.56-1.06-5.11l7.77-.07c-.31,1.19,0,1.78.83,1.77a1.63,1.63,0,0,0,1.35-.55,7,7,0,0,0,.89-2.28l.52-2A11.07,11.07,0,0,1,175.13,64a7.37,7.37,0,0,1-2.53.49,5.44,5.44,0,0,1-3.33-.84,3.16,3.16,0,0,1-1.33-2.28,11.73,11.73,0,0,1,.52-4l2.47-9.56a11.18,11.18,0,0,1,2.76-5.41,6.44,6.44,0,0,1,4.52-1.68,5.13,5.13,0,0,1,2.58.59,4.62,4.62,0,0,1,1.75,1.83l1.07-2Zm-9.82,7.06a7.32,7.32,0,0,0,.37-2.3c-.05-.33-.32-.49-.78-.49a1.34,1.34,0,0,0-1.13.57,6.87,6.87,0,0,0-.87,2.24L176.55,57a7.72,7.72,0,0,0-.39,2.29c.06.35.31.53.78.52a1.34,1.34,0,0,0,1.2-.64,12.69,12.69,0,0,0,1-2.89Z"/><path class="cls-5" d="M212.13,40.81l-5.26,20.33a47.6,47.6,0,0,1-1.58,5.32,7.39,7.39,0,0,1-2,2.55,10,10,0,0,1-3.72,2.08,17.69,17.69,0,0,1-5.33.75,10.54,10.54,0,0,1-5.81-1.25c-1.32-.86-1.68-2.56-1.07-5.12l7.77-.06c-.3,1.19,0,1.78.83,1.78a1.68,1.68,0,0,0,1.35-.56,6.75,6.75,0,0,0,.89-2.28l.52-2a10.47,10.47,0,0,1-2.53,1.43,6.86,6.86,0,0,1-2.52.5,5.42,5.42,0,0,1-3.33-.84A3.1,3.1,0,0,1,189,61.15a12.18,12.18,0,0,1,.51-4L192,47.55a11.18,11.18,0,0,1,2.76-5.41,6.42,6.42,0,0,1,4.53-1.68,5.09,5.09,0,0,1,2.57.59,4.55,4.55,0,0,1,1.75,1.83l1.08-2Zm-9.82,7.06a7.46,7.46,0,0,0,.38-2.3c-.06-.34-.32-.5-.78-.49a1.38,1.38,0,0,0-1.15.58,7.55,7.55,0,0,0-.85,2.23l-2.3,8.88a7.54,7.54,0,0,0-.38,2.29c.05.35.31.52.78.52a1.32,1.32,0,0,0,1.18-.64,11.89,11.89,0,0,0,1-2.89Z"/><path class="cls-5" d="M253.93,45V42.31h1.18a1.6,1.6,0,0,1,.55.07.56.56,0,0,1,.29.26.77.77,0,0,1,.11.4.68.68,0,0,1-.18.48.84.84,0,0,1-.57.25.84.84,0,0,1,.22.14,1.74,1.74,0,0,1,.29.35l.46.73h-.44l-.36-.56a3,3,0,0,0-.25-.36.75.75,0,0,0-.18-.18.33.33,0,0,0-.16-.07l-.19,0h-.41V45Zm.36-1.5H255a1,1,0,0,0,.38-.05.32.32,0,0,0,.2-.16.44.44,0,0,0-.06-.55.65.65,0,0,0-.43-.12h-.84Z"/><path class="cls-6" d="M256.83,43.65a1.93,1.93,0,1,1-1.93-1.93A1.93,1.93,0,0,1,256.83,43.65Z"/></svg>