<?xml version="1.0" encoding="UTF-8"?>
<svg width="300" height="72.461997" xmlns="http://www.w3.org/2000/svg">

  <path fill="#e70026" d="m20.686741,51.699261l0,5.176517l20.678093,0l0,-5.176517l-7.749371,0l0,-25.874184l-12.928722,0l0,5.231066l7.750805,0l0,20.643118l-7.750805,0z"/>
  <path fill="#e70026" d="m56.864738,67.29245l-51.693819,0l0,-51.763775l33.610987,0l0,-5.173717l-38.781919,0l0,62.107001l62.034265,0l0,-38.821075l-5.169514,0l0,33.651566z"/>
  <path fill="#e70026" d="m62.038044,-0.000022l-5.161144,0l0,10.355835l-10.350235,0l0,5.168115l10.350235,0l0,10.355835l5.161144,0l0,-10.355835l10.332027,0l0,-5.168115l-10.332027,0l0,-10.355835z"/>
  <path fill="#e70026" d="m80.12262,10.356735l0,62.105087l219.87738,0l0,-62.105087l-219.87738,0z"/>
  <path fill="#fff" stroke-width="6" d="m275.147034,25.779171c-1.52359,0 -2.864319,0.234589 -4.05072,0.706087c-1.168213,0.470066 -2.159271,1.094143 -2.951141,1.873428c-0.800262,0.789053 -1.40744,1.684643 -1.818756,2.697559c-0.426727,1.008715 -0.636139,2.060026 -0.636139,3.145697c0,1.350079 0.209412,2.484455 0.636139,3.403648c0.411316,0.920589 0.970673,1.688126 1.654816,2.29533c0.672943,0.61697 1.45108,1.107086 2.332489,1.497429c0.871613,0.379139 1.772247,0.722107 2.684448,1.018688c0.924744,0.289616 1.812561,0.573357 2.695374,0.850368c0.868805,0.277008 1.646973,0.617584 2.332489,1.012131c0.677155,0.401546 1.235107,0.897057 1.654816,1.493057c0.418335,0.586197 0.627411,1.343895 0.627411,2.275658c0,0.835232 -0.142883,1.603863 -0.424103,2.286587c-0.2854,0.679955 -0.693939,1.268681 -1.224182,1.75975c-0.54422,0.489674 -1.187622,0.871269 -1.954315,1.145481c-0.76947,0.267208 -1.6492,0.402229 -2.634155,0.402229c-1.175201,0 -2.170013,-0.157734 -2.992676,-0.480927c-0.819824,-0.318989 -1.514191,-0.676098 -2.092041,-1.058037c-0.572205,-0.386143 -1.058472,-0.736862 -1.436218,-1.055855c-0.384735,-0.324589 -0.723846,-0.478741 -1.027435,-0.478741c-0.197235,0 -0.381042,0.051716 -0.53775,0.155209c-0.167877,0.109131 -0.306213,0.244564 -0.415344,0.395672l-1.206696,1.967426c1.154236,1.221375 2.551178,2.196857 4.179688,2.911793c1.634094,0.723301 3.4216,1.08427 5.408234,1.08427c1.627106,0 3.066895,-0.25235 4.341461,-0.747623c1.281525,-0.498074 2.356995,-1.183086 3.224396,-2.050495c0.868805,-0.867409 1.537567,-1.89119 1.993652,-3.069183c0.456116,-1.172398 0.684235,-2.425606 0.684235,-3.768715c0,-1.268955 -0.205841,-2.340282 -0.633942,-3.209091c-0.41272,-0.867409 -0.97583,-1.598774 -1.661377,-2.194775c-0.695343,-0.601601 -1.472778,-1.096157 -2.350006,-1.4865c-0.871613,-0.394543 -1.767426,-0.745434 -2.686615,-1.060223c-0.919189,-0.310589 -1.815186,-0.614208 -2.69101,-0.909389c-0.873016,-0.291016 -1.654816,-0.638046 -2.35434,-1.033993c-0.691132,-0.401546 -1.240265,-0.880352 -1.661407,-1.44278c-0.412689,-0.563824 -0.625183,-1.269398 -0.625183,-2.127007c0,-0.671555 0.121185,-1.292011 0.371613,-1.871239c0.235046,-0.572193 0.592682,-1.077885 1.071167,-1.501802c0.474304,-0.430922 1.065308,-0.765282 1.781616,-1.014318c0.712097,-0.253237 1.525757,-0.378183 2.450531,-0.378183c0.980743,0 1.821411,0.122248 2.513947,0.362881c0.691101,0.244837 1.278809,0.511259 1.768494,0.802273c0.489655,0.292416 0.898621,0.558838 1.217621,0.802273c0.324585,0.242035 0.600647,0.365068 0.832855,0.365068c0.237854,0 0.422363,-0.058205 0.555267,-0.161766c0.15387,-0.103529 0.285065,-0.271069 0.41098,-0.480927l1.005554,-1.963055c-1.06189,-1.028322 -2.283325,-1.812321 -3.6922,-2.356541c-1.408875,-0.537251 -2.959106,-0.80883 -4.671539,-0.80883zm-163.755455,0.061209c-2.291641,0 -4.40519,0.394817 -6.302322,1.17827c-1.911095,0.779285 -3.539009,1.866528 -4.898888,3.257183c-1.354279,1.392092 -2.403404,3.040085 -3.143509,4.946983c-0.748512,1.911137 -1.123619,3.979973 -1.123619,6.217068c0,2.238495 0.375107,4.30798 1.123619,6.214882c0.740105,1.908337 1.78923,3.560699 3.143509,4.951355c1.359879,1.393459 2.987793,2.477318 4.898888,3.259369c1.897133,0.779285 4.010681,1.171715 6.302322,1.171715c2.304253,0 4.406151,-0.392429 6.308884,-1.171715c1.890129,-0.782051 3.518005,-1.86591 4.863914,-3.259369c1.351479,-1.390656 2.400604,-3.043018 3.143509,-4.951355c0.747108,-1.906902 1.119247,-3.976387 1.119247,-6.214882c0,-2.237095 -0.372139,-4.305931 -1.119247,-6.217068c-0.742905,-1.906898 -1.79203,-3.548164 -3.143509,-4.936052c-1.345909,-1.383656 -2.973785,-2.469496 -4.863914,-3.257185c-1.902733,-0.789053 -4.004631,-1.189199 -6.308884,-1.189199zm76.707771,0.27544l0,30.628454l4.118469,0l0,-11.456978l4.901077,0c1.841156,0 3.469345,-0.234932 4.88797,-0.714832c1.43544,-0.477066 2.615952,-1.141788 3.578522,-1.998032c0.958344,-0.852005 1.680206,-1.873051 2.183853,-3.053883c0.50087,-1.184998 0.74762,-2.492928 0.74762,-3.912991c0,-1.438236 -0.229462,-2.74678 -0.699524,-3.910807c-0.451904,-1.166794 -1.153442,-2.161436 -2.096405,-2.988302c-0.930359,-0.826832 -2.125885,-1.46587 -3.55011,-1.914961c-1.428436,-0.449093 -3.112808,-0.67767 -5.051926,-0.67767l-9.019547,0zm25.639938,0l0,30.628454l17.381119,0l0,-3.486717l-13.236404,0l0,-27.141737l-4.144714,0zm21.650436,0l0,18.616224c0,1.767029 0.275879,3.406994 0.828491,4.920753c0.568039,1.508186 1.372559,2.809147 2.43306,3.912991c1.053497,1.103878 2.329239,1.972244 3.843033,2.594818c1.50679,0.628174 3.199402,0.944363 5.08252,0.944363c1.873322,0 3.558578,-0.316189 5.073776,-0.944363c1.502594,-0.622574 2.787796,-1.49094 3.83429,-2.594818c1.040894,-1.103844 1.846588,-2.404804 2.408997,-3.912991c0.559631,-1.51376 0.839447,-3.153725 0.839447,-4.920753l0,-18.616224l-4.120667,0l0,18.616224c0,1.280159 -0.173752,2.457813 -0.548691,3.52388c-0.355362,1.073101 -0.880463,1.989285 -1.567383,2.75877c-0.684158,0.770882 -1.535889,1.368008 -2.529236,1.794727c-1.003113,0.429523 -2.125778,0.640507 -3.390533,0.640507c-1.273148,0 -2.410477,-0.217098 -3.40802,-0.653622c-1.000305,-0.42952 -1.85498,-1.031979 -2.548904,-1.80566c-0.68132,-0.766682 -1.205185,-1.682697 -1.571762,-2.754398c-0.36377,-1.070267 -0.546509,-2.243103 -0.546509,-3.526062l0,-18.594366l-4.111908,0zm-104.098724,0.06558l0,30.519154l5.001648,0l0,-18.745201c0,-0.359531 -0.014801,-0.766953 -0.03717,-1.213245c-0.020935,-0.442089 -0.05127,-0.888554 -0.091782,-1.333477l15.938339,20.321327c0.27562,0.36517 0.563309,0.621616 0.861298,0.762924c0.292419,0.134338 0.669983,0.207672 1.114868,0.207672l2.929291,0l0,-30.519154l-4.988525,0l0,18.550644c0,0.40855 0.006729,0.850296 0.026199,1.320362c0.018234,0.4743 0.063675,0.951878 0.122421,1.447151l-16.003922,-20.413141c-0.153915,-0.191652 -0.293991,-0.349833 -0.424088,-0.474367c-0.123138,-0.114698 -0.252625,-0.207434 -0.386932,-0.273254c-0.131531,-0.060081 -0.280426,-0.104177 -0.452499,-0.122417c-0.170685,-0.023705 -0.380753,-0.034908 -0.633957,-0.034908l-2.975189,0l0,-0.000069zm31.874496,0l0,30.519154l19.219574,0l0,-4.533825l-13.505295,0l0,-8.639187l10.637222,0l0,-4.367687l-10.637222,0l0,-8.462118l13.505295,0l0,-4.516336l-19.219574,0zm29.05452,3.206905l4.89888,0c2.438553,0 4.253128,0.545652 5.456329,1.643894c1.192001,1.101074 1.8013,2.62508 1.8013,4.575359c-0.000046,0.942963 -0.155045,1.80682 -0.465622,2.586071c-0.314789,0.784889 -0.775192,1.458252 -1.383759,2.022079c-0.612808,0.55822 -1.381058,0.999012 -2.277847,1.313801c-0.901016,0.310623 -1.942596,0.467812 -3.130402,0.467812l-4.89888,0l0,-12.609016zm-80.826248,1.289757c1.491386,0 2.829918,0.247021 4.01355,0.736692c1.196167,0.496672 2.205772,1.199617 3.029839,2.13138c0.829628,0.928993 1.46006,2.062824 1.910583,3.39053c0.435089,1.327705 0.660187,2.832752 0.660187,4.50322c0,1.676071 -0.225098,3.174286 -0.660187,4.507591c-0.450523,1.330509 -1.080956,2.45546 -1.910583,3.377415c-0.824066,0.920593 -1.833672,1.626408 -3.029839,2.116077c-1.183632,0.496674 -2.522163,0.743252 -4.01355,0.743252c-1.487221,0 -2.826294,-0.246578 -4.026665,-0.743252c-1.194801,-0.48967 -2.204918,-1.195484 -3.042953,-2.116077c-0.839439,-0.921955 -1.476189,-2.046906 -1.928078,-3.377415c-0.453293,-1.333305 -0.671112,-2.83152 -0.671112,-4.507591c0,-1.670467 0.217819,-3.175514 0.671112,-4.50322c0.451889,-1.327705 1.088638,-2.461536 1.928078,-3.39053c0.838036,-0.931763 1.848152,-1.634708 3.042953,-2.13138c1.200371,-0.489672 2.539444,-0.736692 4.026665,-0.736692z" />
</svg>
